<svg width="275" height="38" viewBox="0 0 275 38" fill="none" xmlns="http://www.w3.org/2000/svg">
<path fill-rule="evenodd" clip-rule="evenodd" d="M18.0001 3.16596C13.8196 3.16596 9.80971 4.78076 6.85272 7.65611C3.89563 10.5316 2.23379 14.4321 2.23379 18.4999V33.5572C2.23329 33.5941 2.2403 33.6307 2.25453 33.6647C2.26875 33.6987 2.28976 33.7294 2.31615 33.7551C2.34253 33.7807 2.37376 33.8008 2.4079 33.8143C2.44204 33.8278 2.4785 33.8345 2.51516 33.834L2.53 33.8338L18.0001 33.8339C20.0701 33.8339 22.1199 33.4375 24.0325 32.6671C25.9452 31.8967 27.6832 30.7675 29.1474 29.3438C30.6116 27.92 31.7732 26.2296 32.5658 24.369C33.3584 22.5084 33.7663 20.514 33.7663 18.4999C33.7663 16.4858 33.3584 14.4915 32.5658 12.6309C31.7732 10.7703 30.6116 9.07986 29.1474 7.65611C27.6832 6.23236 25.9452 5.10314 24.0325 4.33278C22.1199 3.56242 20.0701 3.16596 18.0001 3.16596ZM18.0001 35.9999H2.53617C2.20327 36.0031 1.87308 35.9419 1.56479 35.8201C1.25383 35.6972 0.971542 35.515 0.73451 35.2845C0.497487 35.054 0.31051 34.7799 0.184457 34.4783C0.0594658 34.1793 -0.00315562 33.8593 0.000122344 33.5368V18.4999C0.000122344 13.8596 1.89579 9.40879 5.27108 6.12668C8.64649 2.84447 13.2252 1 18.0001 1C20.3643 1 22.7053 1.45281 24.8894 2.33251C27.0734 3.21221 29.0577 4.50152 30.729 6.12668C32.4003 7.75184 33.7259 9.68101 34.6303 11.804C35.5346 13.927 36 16.2022 36 18.4999C36 20.7976 35.5346 23.0729 34.6303 25.1959C33.7259 27.3189 32.4003 29.248 30.729 30.8732C29.0577 32.4984 27.0734 33.7877 24.8894 34.6674C22.7053 35.5471 20.3643 35.9999 18.0001 35.9999Z" fill="#00B37E"/>
<path d="M66.7188 18.0938V19.1719C66.7188 20.901 66.4844 22.4531 66.0156 23.8281C65.5469 25.2031 64.8854 26.375 64.0312 27.3438C63.1771 28.3021 62.1562 29.0365 60.9688 29.5469C59.7917 30.0573 58.4844 30.3125 57.0469 30.3125C55.6198 30.3125 54.3125 30.0573 53.125 29.5469C51.9479 29.0365 50.9271 28.3021 50.0625 27.3438C49.1979 26.375 48.526 25.2031 48.0469 23.8281C47.5781 22.4531 47.3438 20.901 47.3438 19.1719V18.0938C47.3438 16.3542 47.5781 14.8021 48.0469 13.4375C48.5156 12.0625 49.1771 10.8906 50.0312 9.92188C50.8958 8.95312 51.9167 8.21354 53.0938 7.70312C54.2812 7.19271 55.5885 6.9375 57.0156 6.9375C58.4531 6.9375 59.7604 7.19271 60.9375 7.70312C62.125 8.21354 63.1458 8.95312 64 9.92188C64.8646 10.8906 65.5312 12.0625 66 13.4375C66.4792 14.8021 66.7188 16.3542 66.7188 18.0938ZM61.9844 19.1719V18.0625C61.9844 16.8542 61.875 15.7917 61.6562 14.875C61.4375 13.9583 61.1146 13.1875 60.6875 12.5625C60.2604 11.9375 59.7396 11.4688 59.125 11.1562C58.5104 10.8333 57.8073 10.6719 57.0156 10.6719C56.224 10.6719 55.5208 10.8333 54.9062 11.1562C54.3021 11.4688 53.7865 11.9375 53.3594 12.5625C52.9427 13.1875 52.625 13.9583 52.4062 14.875C52.1875 15.7917 52.0781 16.8542 52.0781 18.0625V19.1719C52.0781 20.3698 52.1875 21.4323 52.4062 22.3594C52.625 23.276 52.9479 24.0521 53.375 24.6875C53.8021 25.3125 54.3229 25.7865 54.9375 26.1094C55.5521 26.4323 56.2552 26.5938 57.0469 26.5938C57.8385 26.5938 58.5417 26.4323 59.1562 26.1094C59.7708 25.7865 60.2865 25.3125 60.7031 24.6875C61.1198 24.0521 61.4375 23.276 61.6562 22.3594C61.875 21.4323 61.9844 20.3698 61.9844 19.1719ZM75.5469 30H71.0156V11.5938C71.0156 10.3125 71.2656 9.23438 71.7656 8.35938C72.276 7.47396 72.9896 6.80729 73.9062 6.35938C74.8333 5.90104 75.9323 5.67188 77.2031 5.67188C77.6198 5.67188 78.0208 5.70312 78.4062 5.76562C78.7917 5.81771 79.1667 5.88542 79.5312 5.96875L79.4844 9.35938C79.2865 9.30729 79.0781 9.27083 78.8594 9.25C78.6406 9.22917 78.3854 9.21875 78.0938 9.21875C77.5521 9.21875 77.0885 9.3125 76.7031 9.5C76.3281 9.67708 76.0417 9.94271 75.8438 10.2969C75.6458 10.651 75.5469 11.0833 75.5469 11.5938V30ZM78.9219 13.0938V16.2812H68.5V13.0938H78.9219ZM88.6875 30.3125C87.375 30.3125 86.1979 30.1042 85.1562 29.6875C84.1146 29.2604 83.2292 28.6719 82.5 27.9219C81.7812 27.1719 81.2292 26.3021 80.8438 25.3125C80.4583 24.3125 80.2656 23.25 80.2656 22.125V21.5C80.2656 20.2188 80.4479 19.0469 80.8125 17.9844C81.1771 16.9219 81.6979 16 82.375 15.2188C83.0625 14.4375 83.8958 13.8385 84.875 13.4219C85.8542 12.9948 86.9583 12.7812 88.1875 12.7812C89.3854 12.7812 90.4479 12.9792 91.375 13.375C92.3021 13.7708 93.0781 14.3333 93.7031 15.0625C94.3385 15.7917 94.8177 16.6667 95.1406 17.6875C95.4635 18.6979 95.625 19.8229 95.625 21.0625V22.9375H82.1875V19.9375H91.2031V19.5938C91.2031 18.9688 91.0885 18.4115 90.8594 17.9219C90.6406 17.4219 90.3073 17.026 89.8594 16.7344C89.4115 16.4427 88.8385 16.2969 88.1406 16.2969C87.5469 16.2969 87.0365 16.4271 86.6094 16.6875C86.1823 16.9479 85.8333 17.3125 85.5625 17.7812C85.3021 18.25 85.1042 18.8021 84.9688 19.4375C84.8438 20.0625 84.7812 20.75 84.7812 21.5V22.125C84.7812 22.8021 84.875 23.4271 85.0625 24C85.2604 24.5729 85.5365 25.0677 85.8906 25.4844C86.2552 25.901 86.6927 26.224 87.2031 26.4531C87.724 26.6823 88.3125 26.7969 88.9688 26.7969C89.7812 26.7969 90.5365 26.6406 91.2344 26.3281C91.9427 26.0052 92.5521 25.5208 93.0625 24.875L95.25 27.25C94.8958 27.7604 94.4115 28.25 93.7969 28.7188C93.1927 29.1875 92.4635 29.5729 91.6094 29.875C90.7552 30.1667 89.7812 30.3125 88.6875 30.3125ZM102.688 16.7812V30H98.1875V13.0938H102.422L102.688 16.7812ZM107.781 12.9844L107.703 17.1562C107.484 17.125 107.219 17.099 106.906 17.0781C106.604 17.0469 106.328 17.0312 106.078 17.0312C105.443 17.0312 104.891 17.1146 104.422 17.2812C103.964 17.4375 103.578 17.6719 103.266 17.9844C102.964 18.2969 102.734 18.6771 102.578 19.125C102.432 19.5729 102.349 20.0833 102.328 20.6562L101.422 20.375C101.422 19.2812 101.531 18.276 101.75 17.3594C101.969 16.4323 102.286 15.625 102.703 14.9375C103.13 14.25 103.651 13.7188 104.266 13.3438C104.88 12.9688 105.583 12.7812 106.375 12.7812C106.625 12.7812 106.88 12.8021 107.141 12.8438C107.401 12.875 107.615 12.9219 107.781 12.9844ZM118.969 13.0938V16.2812H109.125V13.0938H118.969ZM111.562 8.92188H116.062V24.9062C116.062 25.3958 116.125 25.7708 116.25 26.0312C116.385 26.2917 116.583 26.474 116.844 26.5781C117.104 26.6719 117.432 26.7188 117.828 26.7188C118.109 26.7188 118.359 26.7083 118.578 26.6875C118.807 26.6562 119 26.625 119.156 26.5938L119.172 29.9062C118.786 30.0312 118.37 30.1302 117.922 30.2031C117.474 30.276 116.979 30.3125 116.438 30.3125C115.448 30.3125 114.583 30.151 113.844 29.8281C113.115 29.4948 112.552 28.9635 112.156 28.2344C111.76 27.5052 111.562 26.5469 111.562 25.3594V8.92188ZM130.656 26.1875V18.6562C130.656 18.1146 130.568 17.651 130.391 17.2656C130.214 16.8698 129.938 16.5625 129.562 16.3438C129.198 16.125 128.724 16.0156 128.141 16.0156C127.641 16.0156 127.208 16.1042 126.844 16.2812C126.479 16.4479 126.198 16.6927 126 17.0156C125.802 17.3281 125.703 17.6979 125.703 18.125H121.203C121.203 17.4062 121.37 16.724 121.703 16.0781C122.036 15.4323 122.521 14.8646 123.156 14.375C123.792 13.875 124.547 13.4844 125.422 13.2031C126.307 12.9219 127.297 12.7812 128.391 12.7812C129.703 12.7812 130.87 13 131.891 13.4375C132.911 13.875 133.714 14.5312 134.297 15.4062C134.891 16.2812 135.188 17.375 135.188 18.6875V25.9219C135.188 26.849 135.245 27.6094 135.359 28.2031C135.474 28.7865 135.641 29.2969 135.859 29.7344V30H131.312C131.094 29.5417 130.927 28.9688 130.812 28.2812C130.708 27.5833 130.656 26.8854 130.656 26.1875ZM131.25 19.7031L131.281 22.25H128.766C128.172 22.25 127.656 22.3177 127.219 22.4531C126.781 22.5885 126.422 22.7812 126.141 23.0312C125.859 23.2708 125.651 23.5521 125.516 23.875C125.391 24.1979 125.328 24.5521 125.328 24.9375C125.328 25.3229 125.417 25.6719 125.594 25.9844C125.771 26.2865 126.026 26.526 126.359 26.7031C126.693 26.8698 127.083 26.9531 127.531 26.9531C128.208 26.9531 128.797 26.8177 129.297 26.5469C129.797 26.276 130.182 25.9427 130.453 25.5469C130.734 25.151 130.88 24.776 130.891 24.4219L132.078 26.3281C131.911 26.7552 131.682 27.1979 131.391 27.6562C131.109 28.1146 130.75 28.5469 130.312 28.9531C129.875 29.349 129.349 29.6771 128.734 29.9375C128.12 30.1875 127.391 30.3125 126.547 30.3125C125.474 30.3125 124.5 30.099 123.625 29.6719C122.76 29.2344 122.073 28.6354 121.562 27.875C121.062 27.1042 120.812 26.2292 120.812 25.25C120.812 24.3646 120.979 23.5781 121.312 22.8906C121.646 22.2031 122.135 21.625 122.781 21.1562C123.438 20.6771 124.255 20.3177 125.234 20.0781C126.214 19.8281 127.349 19.7031 128.641 19.7031H131.25Z" fill="#996DFF"/>
<path d="M150.781 24.0469C150.781 23.6406 150.719 23.276 150.594 22.9531C150.479 22.6198 150.26 22.3177 149.938 22.0469C149.615 21.7656 149.161 21.4896 148.578 21.2188C147.995 20.9479 147.24 20.6667 146.312 20.375C145.281 20.0417 144.302 19.6667 143.375 19.25C142.458 18.8333 141.646 18.349 140.938 17.7969C140.24 17.2344 139.688 16.5833 139.281 15.8438C138.885 15.1042 138.688 14.2448 138.688 13.2656C138.688 12.3177 138.896 11.4583 139.312 10.6875C139.729 9.90625 140.312 9.23958 141.062 8.6875C141.812 8.125 142.698 7.69271 143.719 7.39062C144.75 7.08854 145.88 6.9375 147.109 6.9375C148.786 6.9375 150.25 7.23958 151.5 7.84375C152.75 8.44792 153.719 9.27604 154.406 10.3281C155.104 11.3802 155.453 12.5833 155.453 13.9375H150.797C150.797 13.2708 150.656 12.6875 150.375 12.1875C150.104 11.6771 149.688 11.276 149.125 10.9844C148.573 10.6927 147.875 10.5469 147.031 10.5469C146.219 10.5469 145.542 10.6719 145 10.9219C144.458 11.1615 144.052 11.4896 143.781 11.9062C143.51 12.3125 143.375 12.7708 143.375 13.2812C143.375 13.6667 143.469 14.0156 143.656 14.3281C143.854 14.6406 144.146 14.9323 144.531 15.2031C144.917 15.474 145.391 15.7292 145.953 15.9688C146.516 16.2083 147.167 16.4427 147.906 16.6719C149.146 17.0469 150.234 17.4688 151.172 17.9375C152.12 18.4062 152.911 18.9323 153.547 19.5156C154.182 20.099 154.661 20.7604 154.984 21.5C155.307 22.2396 155.469 23.0781 155.469 24.0156C155.469 25.0052 155.276 25.8906 154.891 26.6719C154.505 27.4531 153.948 28.1146 153.219 28.6562C152.49 29.1979 151.62 29.6094 150.609 29.8906C149.599 30.1719 148.469 30.3125 147.219 30.3125C146.094 30.3125 144.984 30.1667 143.891 29.875C142.797 29.5729 141.802 29.1198 140.906 28.5156C140.021 27.9115 139.312 27.1406 138.781 26.2031C138.25 25.2656 137.984 24.1562 137.984 22.875H142.688C142.688 23.5833 142.797 24.1823 143.016 24.6719C143.234 25.1615 143.542 25.5573 143.938 25.8594C144.344 26.1615 144.823 26.3802 145.375 26.5156C145.938 26.651 146.552 26.7188 147.219 26.7188C148.031 26.7188 148.698 26.6042 149.219 26.375C149.75 26.1458 150.141 25.8281 150.391 25.4219C150.651 25.0156 150.781 24.5573 150.781 24.0469ZM167.5 26.1875V18.6562C167.5 18.1146 167.411 17.651 167.234 17.2656C167.057 16.8698 166.781 16.5625 166.406 16.3438C166.042 16.125 165.568 16.0156 164.984 16.0156C164.484 16.0156 164.052 16.1042 163.688 16.2812C163.323 16.4479 163.042 16.6927 162.844 17.0156C162.646 17.3281 162.547 17.6979 162.547 18.125H158.047C158.047 17.4062 158.214 16.724 158.547 16.0781C158.88 15.4323 159.365 14.8646 160 14.375C160.635 13.875 161.391 13.4844 162.266 13.2031C163.151 12.9219 164.141 12.7812 165.234 12.7812C166.547 12.7812 167.714 13 168.734 13.4375C169.755 13.875 170.557 14.5312 171.141 15.4062C171.734 16.2812 172.031 17.375 172.031 18.6875V25.9219C172.031 26.849 172.089 27.6094 172.203 28.2031C172.318 28.7865 172.484 29.2969 172.703 29.7344V30H168.156C167.938 29.5417 167.771 28.9688 167.656 28.2812C167.552 27.5833 167.5 26.8854 167.5 26.1875ZM168.094 19.7031L168.125 22.25H165.609C165.016 22.25 164.5 22.3177 164.062 22.4531C163.625 22.5885 163.266 22.7812 162.984 23.0312C162.703 23.2708 162.495 23.5521 162.359 23.875C162.234 24.1979 162.172 24.5521 162.172 24.9375C162.172 25.3229 162.26 25.6719 162.438 25.9844C162.615 26.2865 162.87 26.526 163.203 26.7031C163.536 26.8698 163.927 26.9531 164.375 26.9531C165.052 26.9531 165.641 26.8177 166.141 26.5469C166.641 26.276 167.026 25.9427 167.297 25.5469C167.578 25.151 167.724 24.776 167.734 24.4219L168.922 26.3281C168.755 26.7552 168.526 27.1979 168.234 27.6562C167.953 28.1146 167.594 28.5469 167.156 28.9531C166.719 29.349 166.193 29.6771 165.578 29.9375C164.964 30.1875 164.234 30.3125 163.391 30.3125C162.318 30.3125 161.344 30.099 160.469 29.6719C159.604 29.2344 158.917 28.6354 158.406 27.875C157.906 27.1042 157.656 26.2292 157.656 25.25C157.656 24.3646 157.823 23.5781 158.156 22.8906C158.49 22.2031 158.979 21.625 159.625 21.1562C160.281 20.6771 161.099 20.3177 162.078 20.0781C163.057 19.8281 164.193 19.7031 165.484 19.7031H168.094ZM182.484 26.7969C183.036 26.7969 183.526 26.6927 183.953 26.4844C184.38 26.2656 184.714 25.9635 184.953 25.5781C185.203 25.1823 185.333 24.7188 185.344 24.1875H189.578C189.568 25.375 189.25 26.4323 188.625 27.3594C188 28.276 187.161 29 186.109 29.5312C185.057 30.0521 183.88 30.3125 182.578 30.3125C181.266 30.3125 180.12 30.0938 179.141 29.6562C178.172 29.2188 177.365 28.6146 176.719 27.8438C176.073 27.0625 175.589 26.1562 175.266 25.125C174.943 24.0833 174.781 22.9688 174.781 21.7812V21.3281C174.781 20.1302 174.943 19.0156 175.266 17.9844C175.589 16.9427 176.073 16.0365 176.719 15.2656C177.365 14.4844 178.172 13.875 179.141 13.4375C180.109 13 181.245 12.7812 182.547 12.7812C183.932 12.7812 185.146 13.0469 186.188 13.5781C187.24 14.1094 188.062 14.8698 188.656 15.8594C189.26 16.8385 189.568 18 189.578 19.3438H185.344C185.333 18.7812 185.214 18.2708 184.984 17.8125C184.766 17.3542 184.443 16.9896 184.016 16.7188C183.599 16.4375 183.083 16.2969 182.469 16.2969C181.812 16.2969 181.276 16.4375 180.859 16.7188C180.443 16.9896 180.12 17.3646 179.891 17.8438C179.661 18.3125 179.5 18.849 179.406 19.4531C179.323 20.0469 179.281 20.6719 179.281 21.3281V21.7812C179.281 22.4375 179.323 23.0677 179.406 23.6719C179.49 24.276 179.646 24.8125 179.875 25.2812C180.115 25.75 180.443 26.1198 180.859 26.3906C181.276 26.6615 181.818 26.7969 182.484 26.7969ZM196.688 16.7812V30H192.188V13.0938H196.422L196.688 16.7812ZM201.781 12.9844L201.703 17.1562C201.484 17.125 201.219 17.099 200.906 17.0781C200.604 17.0469 200.328 17.0312 200.078 17.0312C199.443 17.0312 198.891 17.1146 198.422 17.2812C197.964 17.4375 197.578 17.6719 197.266 17.9844C196.964 18.2969 196.734 18.6771 196.578 19.125C196.432 19.5729 196.349 20.0833 196.328 20.6562L195.422 20.375C195.422 19.2812 195.531 18.276 195.75 17.3594C195.969 16.4323 196.286 15.625 196.703 14.9375C197.13 14.25 197.651 13.7188 198.266 13.3438C198.88 12.9688 199.583 12.7812 200.375 12.7812C200.625 12.7812 200.88 12.8021 201.141 12.8438C201.401 12.875 201.615 12.9219 201.781 12.9844ZM208.656 13.0938V30H204.141V13.0938H208.656ZM203.859 8.6875C203.859 8.03125 204.089 7.48958 204.547 7.0625C205.005 6.63542 205.62 6.42188 206.391 6.42188C207.151 6.42188 207.76 6.63542 208.219 7.0625C208.688 7.48958 208.922 8.03125 208.922 8.6875C208.922 9.34375 208.688 9.88542 208.219 10.3125C207.76 10.7396 207.151 10.9531 206.391 10.9531C205.62 10.9531 205.005 10.7396 204.547 10.3125C204.089 9.88542 203.859 9.34375 203.859 8.6875ZM218.109 30H213.578V11.5938C213.578 10.3125 213.828 9.23438 214.328 8.35938C214.839 7.47396 215.552 6.80729 216.469 6.35938C217.396 5.90104 218.495 5.67188 219.766 5.67188C220.182 5.67188 220.583 5.70312 220.969 5.76562C221.354 5.81771 221.729 5.88542 222.094 5.96875L222.047 9.35938C221.849 9.30729 221.641 9.27083 221.422 9.25C221.203 9.22917 220.948 9.21875 220.656 9.21875C220.115 9.21875 219.651 9.3125 219.266 9.5C218.891 9.67708 218.604 9.94271 218.406 10.2969C218.208 10.651 218.109 11.0833 218.109 11.5938V30ZM221.484 13.0938V16.2812H211.062V13.0938H221.484ZM228.703 13.0938V30H224.188V13.0938H228.703ZM224.328 11.0469L227.391 6.23438H232.281L227.984 11.0469H224.328ZM239.578 26.7969C240.13 26.7969 240.62 26.6927 241.047 26.4844C241.474 26.2656 241.807 25.9635 242.047 25.5781C242.297 25.1823 242.427 24.7188 242.438 24.1875H246.672C246.661 25.375 246.344 26.4323 245.719 27.3594C245.094 28.276 244.255 29 243.203 29.5312C242.151 30.0521 240.974 30.3125 239.672 30.3125C238.359 30.3125 237.214 30.0938 236.234 29.6562C235.266 29.2188 234.458 28.6146 233.812 27.8438C233.167 27.0625 232.682 26.1562 232.359 25.125C232.036 24.0833 231.875 22.9688 231.875 21.7812V21.3281C231.875 20.1302 232.036 19.0156 232.359 17.9844C232.682 16.9427 233.167 16.0365 233.812 15.2656C234.458 14.4844 235.266 13.875 236.234 13.4375C237.203 13 238.339 12.7812 239.641 12.7812C241.026 12.7812 242.24 13.0469 243.281 13.5781C244.333 14.1094 245.156 14.8698 245.75 15.8594C246.354 16.8385 246.661 18 246.672 19.3438H242.438C242.427 18.7812 242.307 18.2708 242.078 17.8125C241.859 17.3542 241.536 16.9896 241.109 16.7188C240.693 16.4375 240.177 16.2969 239.562 16.2969C238.906 16.2969 238.37 16.4375 237.953 16.7188C237.536 16.9896 237.214 17.3646 236.984 17.8438C236.755 18.3125 236.594 18.849 236.5 19.4531C236.417 20.0469 236.375 20.6719 236.375 21.3281V21.7812C236.375 22.4375 236.417 23.0677 236.5 23.6719C236.583 24.276 236.74 24.8125 236.969 25.2812C237.208 25.75 237.536 26.1198 237.953 26.3906C238.37 26.6615 238.911 26.7969 239.578 26.7969ZM254.031 13.0938V30H249.516V13.0938H254.031ZM249.234 8.6875C249.234 8.03125 249.464 7.48958 249.922 7.0625C250.38 6.63542 250.995 6.42188 251.766 6.42188C252.526 6.42188 253.135 6.63542 253.594 7.0625C254.062 7.48958 254.297 8.03125 254.297 8.6875C254.297 9.34375 254.062 9.88542 253.594 10.3125C253.135 10.7396 252.526 10.9531 251.766 10.9531C250.995 10.9531 250.38 10.7396 249.922 10.3125C249.464 9.88542 249.234 9.34375 249.234 8.6875ZM257.031 21.7188V21.3906C257.031 20.151 257.208 19.0104 257.562 17.9688C257.917 16.9167 258.432 16.0052 259.109 15.2344C259.786 14.4635 260.62 13.8646 261.609 13.4375C262.599 13 263.734 12.7812 265.016 12.7812C266.297 12.7812 267.438 13 268.438 13.4375C269.438 13.8646 270.276 14.4635 270.953 15.2344C271.641 16.0052 272.161 16.9167 272.516 17.9688C272.87 19.0104 273.047 20.151 273.047 21.3906V21.7188C273.047 22.9479 272.87 24.0885 272.516 25.1406C272.161 26.1823 271.641 27.0938 270.953 27.875C270.276 28.6458 269.443 29.2448 268.453 29.6719C267.464 30.099 266.328 30.3125 265.047 30.3125C263.766 30.3125 262.625 30.099 261.625 29.6719C260.635 29.2448 259.797 28.6458 259.109 27.875C258.432 27.0938 257.917 26.1823 257.562 25.1406C257.208 24.0885 257.031 22.9479 257.031 21.7188ZM261.531 21.3906V21.7188C261.531 22.4271 261.594 23.0885 261.719 23.7031C261.844 24.3177 262.042 24.8594 262.312 25.3281C262.594 25.7865 262.958 26.1458 263.406 26.4062C263.854 26.6667 264.401 26.7969 265.047 26.7969C265.672 26.7969 266.208 26.6667 266.656 26.4062C267.104 26.1458 267.464 25.7865 267.734 25.3281C268.005 24.8594 268.203 24.3177 268.328 23.7031C268.464 23.0885 268.531 22.4271 268.531 21.7188V21.3906C268.531 20.7031 268.464 20.0573 268.328 19.4531C268.203 18.8385 268 18.2969 267.719 17.8281C267.448 17.349 267.089 16.974 266.641 16.7031C266.193 16.4323 265.651 16.2969 265.016 16.2969C264.38 16.2969 263.839 16.4323 263.391 16.7031C262.953 16.974 262.594 17.349 262.312 17.8281C262.042 18.2969 261.844 18.8385 261.719 19.4531C261.594 20.0573 261.531 20.7031 261.531 21.3906Z" fill="#00B37E"/>
<path d="M17.0228 9.22195V28.4787" stroke="#996DFF" stroke-width="2" stroke-linecap="round" stroke-linejoin="round"/>
<path d="M22.2073 15.1471C22.2073 14.6608 22.1115 14.1792 21.9254 13.7299C21.7393 13.2806 21.4665 12.8724 21.1226 12.5285C20.7787 12.1846 20.3705 11.9118 19.9212 11.7257C19.4719 11.5396 18.9904 11.4438 18.504 11.4438H15.1711C14.189 11.4438 13.2471 11.834 12.5526 12.5285C11.8581 13.223 11.4679 14.1649 11.4679 15.1471C11.4679 16.1292 11.8581 17.0712 12.5526 17.7656C13.2471 18.4601 14.189 18.8503 15.1711 18.8503H19.2447C20.2268 18.8503 21.1688 19.2405 21.8633 19.9349C22.5578 20.6294 22.9479 21.5714 22.9479 22.5535C22.9479 23.5357 22.5578 24.4776 21.8633 25.1721C21.1688 25.8666 20.2268 26.2567 19.2447 26.2567H14.8008C13.8187 26.2567 12.8767 25.8666 12.1822 25.1721C11.4878 24.4776 11.0976 23.5357 11.0976 22.5535" stroke="#996DFF" stroke-width="2" stroke-linecap="round" stroke-linejoin="round"/>
</svg>
