<svg width="431" height="424" viewBox="0 0 431 424" fill="none" xmlns="http://www.w3.org/2000/svg">
<g opacity="0.1">
<path fill-rule="evenodd" clip-rule="evenodd" d="M215.501 26.1863C165.451 26.1863 117.444 45.7092 82.0423 80.472C46.6393 115.236 26.7434 162.394 26.7434 211.573V393.615C26.7374 394.061 26.8214 394.503 26.9917 394.914C27.162 395.326 27.4135 395.697 27.7295 396.007C28.0453 396.317 28.4192 396.56 28.8279 396.723C29.2367 396.887 29.6732 396.967 30.1121 396.962L30.2897 396.959L215.501 396.96C240.283 396.96 264.825 392.167 287.723 382.854C310.621 373.54 331.43 359.888 348.959 342.675C366.489 325.462 380.396 305.025 389.885 282.53C399.374 260.035 404.258 235.924 404.258 211.573C404.258 187.223 399.374 163.112 389.885 140.617C380.396 118.122 366.489 97.6851 348.959 80.472C331.43 63.2589 310.621 49.6067 287.723 40.2931C264.825 30.9795 240.283 26.1863 215.501 26.1863ZM215.501 423.147H30.3636C26.3781 423.185 22.4249 422.446 18.734 420.973C15.0111 419.487 11.6315 417.285 8.79372 414.498C5.95602 411.712 3.71749 408.397 2.20836 404.751C0.711938 401.136 -0.0377798 397.267 0.00146473 393.368V211.573C0.00146473 155.472 22.6968 101.662 63.1066 61.9813C103.518 22.2996 158.335 0 215.501 0C243.806 0 271.833 5.4745 297.981 16.11C324.129 26.7455 347.886 42.3332 367.895 61.9813C387.904 81.6293 403.774 104.953 414.601 130.62C425.428 156.286 431 183.794 431 211.573C431 239.352 425.428 266.86 414.601 292.527C403.774 318.194 387.904 341.517 367.895 361.165C347.886 380.813 324.129 396.401 297.981 407.037C271.833 417.672 243.806 423.147 215.501 423.147Z" fill="#7C7C8A"/>
</g>
<g opacity="0.1">
<path d="M205.5 69.4688V359.531" stroke="#7C7C8A" stroke-width="20" stroke-linecap="round" stroke-linejoin="round"/>
<path d="M283.594 158.719C283.594 151.393 282.151 144.14 279.348 137.372C276.544 130.605 272.436 124.455 267.256 119.275C262.076 114.096 255.927 109.987 249.159 107.184C242.391 104.38 235.138 102.938 227.812 102.938H177.609C162.815 102.938 148.627 108.814 138.166 119.275C127.705 129.736 121.828 143.925 121.828 158.719C121.828 173.513 127.705 187.701 138.166 198.162C148.627 208.623 162.815 214.5 177.609 214.5H238.969C253.763 214.5 267.951 220.377 278.412 230.838C288.873 241.299 294.75 255.487 294.75 270.281C294.75 285.075 288.873 299.264 278.412 309.725C267.951 320.186 253.763 326.062 238.969 326.062H172.031C157.237 326.062 143.049 320.186 132.588 309.725C122.127 299.264 116.25 285.075 116.25 270.281" stroke="#7C7C8A" stroke-width="20" stroke-linecap="round" stroke-linejoin="round"/>
</g>
</svg>
